<?xml version="1.0" encoding="iso-8859-1"?>
<!-- Generator: Adobe Illustrator 19.0.0, SVG Export Plug-In . SVG Version: 6.00 Build 0)  -->
<svg version="1.1" id="Capa_1" xmlns="http://www.w3.org/2000/svg" xmlns:xlink="http://www.w3.org/1999/xlink" x="0px" y="0px"
	 viewBox="0 0 490.076 490.076" style="enable-background:new 0 0 490.076 490.076;" xml:space="preserve" fill="#ffb300">
<g>
	<path d="M489.14,311.5l-45.03-97.583c-0.03-0.065-1.93-4.798-7.617-5.796l-189.762-31.188c-0.172-0.028-1.824-0.291-3.419,0.018
		L53.66,208.121c-3.344,0.548-6.195,2.722-7.617,5.796L1.014,311.5c-4.109,9.608,5.339,14.978,9.271,14.485h34.822V448.7
		c0,4.999,3.619,9.261,8.554,10.073l189.762,31.188c0.159,0.026,3.147,0.027,3.31,0l189.762-31.188
		c4.935-0.813,8.553-5.074,8.553-10.073V325.985h34.822c3.479,0,6.724-1.775,8.598-4.706
		C490.341,318.349,490.595,314.66,489.14,311.5z M26.241,305.569l36.073-78.177l103.723-17.05l63.728-10.474l-36.96,105.701H26.241z
		 M234.869,467.865L65.524,440.031V325.985h134.523c4.337,0,8.205-2.742,9.635-6.839l25.187-72.026V467.865z M424.63,440.031
		l-169.345,27.834V247.122l25.187,72.024c1.43,4.098,5.298,6.839,9.635,6.839H424.63V440.031z M297.35,305.569l-36.96-105.701
		l66.363,10.907l101.087,16.616l36.073,78.177H297.35z"/>
	<path d="M325.876,83.004h-46.83V0.096h-67.938v82.908h-46.83l80.799,80.331L325.876,83.004z M231.524,103.42V20.512h27.105v82.908
		h17.75l-31.303,31.123l-31.303-31.123H231.524z"/>
</g>
<g>
</g>
<g>
</g>
<g>
</g>
<g>
</g>
<g>
</g>
<g>
</g>
<g>
</g>
<g>
</g>
<g>
</g>
<g>
</g>
<g>
</g>
<g>
</g>
<g>
</g>
<g>
</g>
<g>
</g>
</svg>
