<?xml version="1.0" encoding="iso-8859-1"?>
<!-- Generator: Adobe Illustrator 19.0.0, SVG Export Plug-In . SVG Version: 6.00 Build 0)  -->
<svg version="1.1" id="Layer_1" xmlns="http://www.w3.org/2000/svg" xmlns:xlink="http://www.w3.org/1999/xlink" x="0px" y="0px"
	 viewBox="0 0 512 512" style="enable-background:new 0 0 512 512;" xml:space="preserve" fill="#ffb300">
<g>
	<g>
		<path d="M480.81,195.267H327.526c-5.951,0-10.793-4.842-10.793-10.793V31.19c0-17.198-13.992-31.19-31.19-31.19h-59.086
			c-17.198,0-31.19,13.992-31.19,31.19v153.284c0,5.951-4.842,10.793-10.793,10.793H31.19c-17.198,0-31.19,13.992-31.19,31.19
			v59.086c0,17.198,13.992,31.19,31.19,31.19h153.284c5.951,0,10.793,4.842,10.793,10.793V480.81c0,17.198,13.992,31.19,31.19,31.19
			h59.086c17.198,0,31.19-13.992,31.19-31.19V327.526c0-5.951,4.842-10.793,10.793-10.793H480.81c17.198,0,31.19-13.992,31.19-31.19
			v-59.086C512,209.259,498.008,195.267,480.81,195.267z M491.602,285.543c0,5.95-4.842,10.792-10.792,10.792H327.526
			c-17.199,0-31.191,13.992-31.191,31.191V480.81c0,5.95-4.842,10.792-10.792,10.792h-59.086c-5.95,0-10.792-4.842-10.792-10.792
			V327.526c0-17.199-13.992-31.191-31.191-31.191H31.19c-5.95,0-10.792-4.842-10.792-10.792v-59.086
			c0-5.95,4.842-10.792,10.792-10.792h153.284c17.199,0,31.191-13.992,31.191-31.191V31.19c0-5.95,4.842-10.792,10.792-10.792
			h59.086c5.95,0,10.792,4.842,10.792,10.792v153.284c0,17.199,13.992,31.191,31.191,31.191H480.81
			c5.95,0,10.792,4.842,10.792,10.792V285.543z"/>
	</g>
</g>
<g>
	<g>
		<path d="M472.223,225.402h-95.909c-5.632,0-10.199,4.567-10.199,10.199c0,5.632,4.567,10.199,10.199,10.199h95.909
			c5.632,0,10.199-4.567,10.199-10.199C482.422,229.97,477.855,225.402,472.223,225.402z"/>
	</g>
</g>
<g>
	<g>
		<path d="M345.753,225.402h-7.992c-5.632,0-10.199,4.567-10.199,10.199c0,5.632,4.567,10.199,10.199,10.199h7.992
			c5.632,0,10.199-4.567,10.199-10.199C355.952,229.97,351.385,225.402,345.753,225.402z"/>
	</g>
</g>
<g>
</g>
<g>
</g>
<g>
</g>
<g>
</g>
<g>
</g>
<g>
</g>
<g>
</g>
<g>
</g>
<g>
</g>
<g>
</g>
<g>
</g>
<g>
</g>
<g>
</g>
<g>
</g>
<g>
</g>
</svg>
